<svg width="623" height="617" viewBox="0 0 623 617" fill="none" xmlns="http://www.w3.org/2000/svg">
<rect width="623" height="617" rx="70" fill="#E3F1E9"/>
<path fill-rule="evenodd" clip-rule="evenodd" d="M155.272 153.777C161.557 147.552 171.748 147.552 178.033 153.777L222.982 198.293L267.931 153.777C274.217 147.552 284.407 147.552 290.692 153.777C296.977 160.001 296.977 170.094 290.692 176.318L245.743 220.835L290.692 265.351C296.977 271.576 296.977 281.668 290.692 287.892C284.407 294.117 274.217 294.117 267.931 287.892L222.982 243.376L178.033 287.892C171.748 294.117 161.557 294.117 155.272 287.892C148.987 281.668 148.987 271.576 155.272 265.351L200.222 220.835L155.272 176.318C148.987 170.094 148.987 160.001 155.272 153.777ZM400.018 180.987C377.797 180.987 359.782 198.827 359.782 220.835C359.782 242.842 377.797 260.683 400.018 260.683C422.239 260.683 440.253 242.842 440.253 220.835C440.253 198.827 422.239 180.987 400.018 180.987ZM327.594 220.835C327.594 181.221 360.019 149.108 400.018 149.108C440.017 149.108 472.442 181.221 472.442 220.835C472.442 260.448 440.017 292.561 400.018 292.561C360.019 292.561 327.594 260.448 327.594 220.835ZM222.982 356.318C200.761 356.318 182.747 374.158 182.747 396.165C182.747 418.173 200.761 436.013 222.982 436.013C245.203 436.013 263.217 418.173 263.217 396.165C263.217 374.158 245.203 356.318 222.982 356.318ZM150.558 396.165C150.558 356.552 182.984 324.439 222.982 324.439C262.981 324.439 295.406 356.552 295.406 396.165C295.406 435.779 262.981 467.892 222.982 467.892C182.984 467.892 150.558 435.779 150.558 396.165ZM332.308 329.108C338.593 322.884 348.784 322.884 355.069 329.108L400.018 373.624L444.967 329.108C451.252 322.884 461.443 322.884 467.728 329.108C474.012 335.332 474.012 345.425 467.728 351.649L422.778 396.165L467.728 440.682C474.012 446.906 474.012 456.999 467.728 463.223C461.443 469.447 451.252 469.447 444.967 463.223L400.018 418.707L355.069 463.223C348.784 469.447 338.593 469.447 332.308 463.223C326.023 456.999 326.023 446.906 332.308 440.682L377.258 396.165L332.308 351.649C326.023 345.425 326.023 335.332 332.308 329.108Z" fill="#84DBAE"/>
</svg>
